# xmcd
#
# Track frame offsets:
#	150
#	12155
#	26005
#	38510
#	56599
#	73342
#	88264
#	101917
#	114440
#	128169
#	143542
#	149536
#	162741
#	172339
#	183048
#	196340
#	206315
#	216789
#	227125
#	241986
#	258898
#	266748
#	280278
#	292473
#	304632
#	321826
#	332421
#	350060
#
# Disc length: 4791 seconds
# Revision: 0
# Processed by: cddbd v1.5.2PL0 Copyright (c) Steve Scherf et al.
# Submitted via: dBpowerAMP V12.0
#
DISCID=b512b51c
DTITLE=Various Artist - Slowjams Mix June 2009
DYEAR=2009
DGENRE=R&B
TTITLE0=Anthony Hamilton - Her heart
TTITLE1=Jamie Foxx - Slow
TTITLE2=Montell Jordan - I like the way
TTITLE3=Jaheim - Never
TTITLE4=Keith Sweat - Never had a lover
TTITLE5=Mario - 15 minutes
TTITLE6=Case - Let me down easy
TTITLE7=Lyfe Jennings - Let's stay together
TTITLE8=Mary J Blige - Ain't really me
TTITLE9=Boyz II Men - Be a man
TTITLE10=Ginuwine feat. Tyrese - One night stand
TTITLE11=Usher - Here I stand
TTITLE12=Joe - By any means
TTITLE13=Sammie - Come with me
TTITLE14=Jamie Foxx - Rainman
TTITLE15=Chris Brown - Believer
TTITLE16=Johnta Austin - One time for love
TTITLE17=Montell Jordan - I cried
TTITLE18=K-Ci and Jojo - Take a chance on love
TTITLE19=Ne-Yo - Mad
TTITLE20=Avant - Break ya back
TTITLE21=Ginuwine - Last chance
TTITLE22=Johnta Austin - If I was your boyfriend
TTITLE23=Mariah Carey - I stay in love
TTITLE24=Ne-Yo - Real thing
TTITLE25=Joe - Heavy
TTITLE26=Usher feat. Beyonce - Love in this club (part II)
TTITLE27=Ne-Yo - Love
EXTD=
EXTT0=
EXTT1=
EXTT2=
EXTT3=
EXTT4=
EXTT5=
EXTT6=
EXTT7=
EXTT8=
EXTT9=
EXTT10=
EXTT11=
EXTT12=
EXTT13=
EXTT14=
EXTT15=
EXTT16=
EXTT17=
EXTT18=
EXTT19=
EXTT20=
EXTT21=
EXTT22=
EXTT23=
EXTT24=
EXTT25=
EXTT26=
EXTT27=
PLAYORDER=
